HIERARCHY
ROOT Hips
{
 OFFSET 0.000000 0.000000 0.000000
 CHANNELS 6 Xposition Yposition Zposition Yrotation Xrotation Zrotation
 JOINT Chest
 {
  OFFSET 0.000000 9.585900 0.002600
  CHANNELS 3 Yrotation Xrotation Zrotation
  JOINT Chest2
  {
   OFFSET 0.000000 9.601200 -0.005300
   CHANNELS 3 Yrotation Xrotation Zrotation
   JOINT Chest3
   {
    OFFSET 0.000000 9.561800 0.000000
    CHANNELS 3 Yrotation Xrotation Zrotation
    JOINT Chest4
    {
     OFFSET 0.000000 9.552100 0.000000
     CHANNELS 3 Yrotation Xrotation Zrotation
     JOINT Neck
     {
      OFFSET 0.000000 14.453000 0.000000
      CHANNELS 3 Yrotation Xrotation Zrotation
      JOINT Head
      {
       OFFSET 0.000000 8.936500 -0.011300
       CHANNELS 3 Yrotation Xrotation Zrotation
       End Site
       {
        OFFSET 0.000000 17.073600 -0.006000
       }
      }
     }
     JOINT RightCollar
     {
      OFFSET -2.921100 9.558500 0.000000
      CHANNELS 3 Yrotation Xrotation Zrotation
      JOINT RightShoulder
      {
       OFFSET -13.519700 0.000000 0.000000
       CHANNELS 3 Yrotation Xrotation Zrotation
       JOINT RightElbow
       {
        OFFSET 0.000000 -29.696600 0.000000
        CHANNELS 3 Yrotation Xrotation Zrotation
        JOINT RightWrist
        {
         OFFSET 0.000000 -24.004700 0.000000
         CHANNELS 3 Yrotation Xrotation Zrotation
         End Site
         {
          OFFSET 0.000000 -17.728500 0.000000
         }
        }
       }
      }
     }
     JOINT LeftCollar
     {
      OFFSET 2.921100 9.558500 0.000000
      CHANNELS 3 Yrotation Xrotation Zrotation
      JOINT LeftShoulder
      {
       OFFSET 13.519700 0.000000 0.000000
       CHANNELS 3 Yrotation Xrotation Zrotation
       JOINT LeftElbow
       {
        OFFSET 0.000000 -29.696600 0.000000
        CHANNELS 3 Yrotation Xrotation Zrotation
        JOINT LeftWrist
        {
         OFFSET 0.000000 -24.004700 0.000000
         CHANNELS 3 Yrotation Xrotation Zrotation
         End Site
         {
          OFFSET 0.000000 -17.728500 0.000000
         }
        }
       }
      }
     }
    }
   }
  }
 }
 JOINT RightHip
 {
  OFFSET -7.771700 -0.012900 -0.001300
  CHANNELS 3 Yrotation Xrotation Zrotation
  JOINT RightKnee
  {
   OFFSET 0.000000 -40.869800 0.001200
   CHANNELS 3 Yrotation Xrotation Zrotation
   JOINT RightAnkle
   {
    OFFSET 0.000000 -39.717900 0.002100
    CHANNELS 3 Yrotation Xrotation Zrotation
    JOINT RightToe
    {
     OFFSET 0.000000 -4.965400 11.033500
     CHANNELS 3 Yrotation Xrotation Zrotation
     End Site
     {
      OFFSET 0.000000 -1.423100 5.872300
     }
    }
   }
  }
 }
 JOINT LeftHip
 {
  OFFSET 7.771700 -0.012900 -0.001300
  CHANNELS 3 Yrotation Xrotation Zrotation
  JOINT LeftKnee
  {
   OFFSET 0.000000 -40.869800 0.001200
   CHANNELS 3 Yrotation Xrotation Zrotation
   JOINT LeftAnkle
   {
    OFFSET 0.000000 -39.717900 0.002100
    CHANNELS 3 Yrotation Xrotation Zrotation
    JOINT LeftToe
    {
     OFFSET 0.000000 -4.965400 11.033500
     CHANNELS 3 Yrotation Xrotation Zrotation
     End Site
     {
      OFFSET 0.000000 -1.423100 5.872300
     }
    }
   }
  }
 }
}
MOTION
Frames: 14
Frame Time: 0.008333
0.000000 85.388000 0.000000 0.000000 -5.767877 0.000000 0.000000 11.653817 0.000000 0.000000 -5.885947 0.000000 0.000000 -0.000000 0.000000 0.000000 -0.000000 0.000000 0.000000 12.528835 0.000000 0.000000 0.711642 0.000000 0.000000 -0.000000 0.000000 0.000000 0.000000 -90.000000 0.000000 -2.309062 0.000000 0.000000 2.309062 0.000000 0.000000 -0.000000 0.000000 0.000000 -0.000000 90.000000 0.000000 -2.309062 0.000000 0.000000 2.309062 0.000000 0.000000 8.520406 0.000000 0.000000 1.905762 0.000000 -0.000000 -4.658285 0.000000 0.000000 -0.000000 0.000000 0.000000 8.520406 0.000000 0.000000 1.905762 0.000000 -0.000000 -4.658285 0.000000 0.000000 -0.000000 0.000000
-18.875706 57.140883 30.555280 168.686250 -42.351628 2.272341 7.623569 24.601564 3.732491 1.182897 4.158606 0.293629 1.834287 6.565389 0.420418 6.114644 20.539588 2.116093 -0.688385 17.117165 -2.038986 -0.505254 -4.008500 -3.361140 5.570048 2.139127 2.135985 22.148110 -28.662746 -19.769513 44.101834 -52.736145 -22.893625 10.348759 -1.676917 -25.614994 -7.915398 0.447926 -3.056330 -11.630387 -23.916168 9.499691 -62.937779 -58.532174 36.445435 -27.555065 -1.913976 15.125702 14.100701 -32.903709 3.496395 -14.248053 70.704470 -14.904847 -0.275757 12.293787 4.256429 -0.572928 -8.563755 3.880315 -2.055416 -33.727138 0.873058 35.372879 69.654493 31.516272 -22.463881 7.533528 -4.268712 -0.824841 -0.649730 -0.159831
-18.863548 57.145327 30.556392 168.762864 -42.349349 2.306473 7.566214 24.651837 3.720493 1.197754 4.176818 0.307618 1.811477 6.568160 0.409818 6.042705 20.527843 2.060559 -0.603593 17.066518 -1.890702 -0.436648 -4.126622 -3.211168 5.635102 2.137191 2.103358 22.184094 -28.640005 -19.839829 43.995711 -52.787876 -22.711347 10.318091 -1.795775 -25.670723 -7.871104 0.420656 -3.073890 -11.569031 -23.806670 9.410480 -63.142307 -58.446663 36.739983 -27.587698 -1.923200 15.127892 14.089852 -32.901239 3.513406 -14.427639 70.704906 -15.190196 -0.325925 12.324096 4.232192 -0.514951 -8.596883 3.968330 -2.013535 -33.682397 0.864595 35.202096 69.627193 31.240482 -22.534258 7.499886 -4.184386 -0.801187 -0.605162 -0.194236
-18.854507 57.147198 30.559886 168.819475 -42.318710 2.383656 7.595234 24.722560 3.764555 1.125829 4.138859 0.239729 1.776666 6.541448 0.379421 6.014295 20.519219 2.038487 -0.540677 17.042116 -1.720293 -0.392031 -4.254437 -3.041848 5.713203 2.197994 2.077854 22.196869 -28.648762 -19.898428 43.920790 -52.834105 -22.574362 10.301631 -1.899524 -25.713948 -7.806090 0.435589 -3.081481 -11.558203 -23.713822 9.335765 -63.334764 -58.359951 37.023645 -27.616847 -1.931820 15.131973 14.138261 -32.919229 3.509687 -14.415861 70.722113 -15.381195 -0.359179 12.333775 4.410292 -0.572337 -8.613336 3.972732 -1.920417 -33.668064 0.809453 35.067825 69.594681 31.017083 -22.606089 7.455299 -4.124166 -0.731724 -0.591709 -0.235766
-18.837542 57.147577 30.565495 168.893854 -42.277025 2.402896 7.568908 24.741655 3.764838 1.113847 4.139842 0.231552 1.734295 6.513205 0.349809 5.987549 20.554269 2.036103 -0.503404 16.967958 -1.597600 -0.370395 -4.395761 -2.821169 5.756035 2.181968 2.035235 22.236672 -28.620149 -19.931287 43.881581 -52.874230 -22.482194 10.291115 -1.982442 -25.744524 -7.742523 0.397448 -3.100127 -11.555548 -23.623983 9.275451 -63.500478 -58.286912 37.280630 -27.644642 -1.938804 15.132044 14.165543 -32.957345 3.533360 -14.513371 70.720535 -15.620437 -0.403964 12.354393 4.518709 -0.584291 -8.629890 3.999354 -1.857430 -33.668719 0.798495 34.959050 69.567334 30.835982 -22.630705 7.387959 -4.078899 -0.747913 -0.522178 -0.217590
-18.819165 57.148713 30.569302 168.951749 -42.244907 2.420186 7.555232 24.771545 3.766893 1.104228 4.139658 0.228063 1.757034 6.554235 0.382161 5.885537 20.525763 1.971669 -0.487474 16.885833 -1.467691 -0.384125 -4.548733 -2.586524 5.796408 2.173640 1.994943 22.238722 -28.638858 -19.947460 43.874093 -52.896473 -22.389684 10.284057 -2.044041 -25.765208 -7.698251 0.352827 -3.117111 -11.550712 -23.538482 9.232399 -63.641096 -58.233083 37.502529 -27.651689 -1.986037 15.121838 14.210106 -32.990027 3.567745 -14.713875 70.707347 -15.911015 -0.584549 12.393928 4.576576 -0.543914 -8.642293 4.023307 -1.781110 -33.668157 0.793935 34.847431 69.552327 30.670739 -22.680722 7.348778 -4.011406 -0.747746 -0.487516 -0.228382
-18.802554 57.149718 30.571432 168.998042 -42.216773 2.443487 7.551992 24.819686 3.772445 1.089392 4.124992 0.216897 1.746120 6.568997 0.383396 5.830142 20.566945 1.956971 -0.490329 16.750963 -1.354692 -0.432959 -4.713564 -2.344537 5.831912 2.109580 1.943703 22.249732 -28.645731 -19.961586 43.875843 -52.915952 -22.323416 10.281507 -2.089397 -25.780517 -7.653838 0.261010 -3.138127 -11.545895 -23.462897 9.200890 -63.757792 -58.201540 37.684047 -27.664626 -2.017719 15.118544 14.273627 -33.020697 3.613994 -14.977704 70.686935 -16.242624 -0.943955 12.454358 4.638155 -0.583685 -8.639913 4.029680 -1.692054 -33.670121 0.781486 34.731198 69.547013 30.517903 -22.733807 7.323509 -3.956159 -0.756139 -0.454877 -0.221054
-18.780939 57.149603 30.573546 169.002381 -42.187102 2.446682 7.591010 24.845718 3.811071 1.081137 4.125090 0.213801 1.722898 6.541282 0.368439 5.811074 20.555751 1.944603 -0.521915 16.702841 -1.219495 -0.518204 -4.890312 -2.098821 5.843578 2.114730 1.935814 22.275088 -28.605430 -19.958987 43.900234 -52.941689 -22.322452 10.283617 -2.097860 -25.824218 -7.630596 0.285438 -3.161184 -11.550311 -23.412820 9.209349 -63.848148 -58.190768 37.821339 -27.692746 -2.007850 15.136865 14.346929 -33.061416 3.714485 -15.234814 70.661819 -16.578854 -1.233765 12.482408 4.747814 -0.662636 -8.609256 4.015353 -1.646588 -33.685327 0.805329 34.753555 69.534929 30.496027 -22.665143 7.359306 -3.843373 -0.880245 -0.485075 -0.271350
-18.761996 57.147914 30.574935 169.016055 -42.153170 2.437690 7.623804 24.865215 3.847694 1.058564 4.097619 0.201585 1.727246 6.584883 0.376458 5.769485 20.547599 1.923306 -0.568250 16.606489 -1.097132 -0.640806 -5.076124 -1.853309 5.862612 2.075757 1.920392 22.296506 -28.542558 -19.902538 43.993363 -52.950309 -22.430557 10.290626 -2.130872 -25.810930 -7.626689 0.246869 -3.169179 -11.532842 -23.394769 9.213887 -63.859121 -58.174578 37.859397 -27.725316 -1.967065 15.183245 14.417876 -33.106358 3.805238 -15.478906 70.634311 -16.903436 -1.422350 12.519484 4.831457 -0.674360 -8.603674 4.033196 -1.545647 -33.700198 0.850386 34.579537 69.554253 30.323192 -22.759523 7.333228 -3.812121 -0.812992 -0.479849 -0.271296
-18.746632 57.145210 30.574793 169.100385 -42.122463 2.378377 7.603469 24.884140 3.880995 1.048383 4.071158 0.199941 1.726766 6.629180 0.379489 5.703107 20.609159 1.901580 -0.617847 16.440064 -0.986221 -0.800206 -5.266250 -1.612815 5.896667 1.983485 1.897925 22.300385 -28.551043 -19.874615 44.054306 -52.950117 -22.466264 10.298847 -2.146828 -25.794515 -7.612986 0.141677 -3.171655 -11.492124 -23.337092 9.230592 -63.931272 -58.201911 37.950464 -27.735745 -1.976089 15.210376 14.443885 -33.148352 3.882182 -15.732860 70.609490 -17.222018 -1.547318 12.556712 4.897890 -0.652638 -8.614374 4.063137 -1.500888 -33.722245 0.882757 34.428290 69.576958 30.182992 -22.821408 7.294427 -3.795935 -0.753170 -0.483788 -0.282418
-18.734350 57.139593 30.575286 169.176183 -42.076356 2.312675 7.588928 24.872490 3.919328 1.025705 4.087825 0.188933 1.726320 6.601523 0.380031 5.674649 20.646252 1.895311 -0.702344 16.338620 -0.877216 -0.994599 -5.455328 -1.380789 5.900499 1.957227 1.894181 22.312031 -28.572010 -19.843908 44.116840 -52.943341 -22.511246 10.309613 -2.143530 -25.786279 -7.625141 0.102714 -3.174834 -11.448406 -23.290102 9.266463 -63.976054 -58.252913 38.000354 -27.740107 -1.979356 15.255343 14.482303 -33.208259 3.954412 -15.981642 70.582335 -17.522011 -1.634457 12.585196 4.965973 -0.616021 -8.619473 4.088611 -1.485060 -33.769978 0.910489 34.356750 69.599276 30.121569 -22.818958 7.266914 -3.767230 -0.770576 -0.462379 -0.274750
-18.726974 57.133176 30.573849 169.267173 -42.034119 2.233720 7.565201 24.873496 3.954225 1.040365 4.092060 0.206214 1.700902 6.615358 0.366805 5.632480 20.641104 1.881847 -0.806606 16.240957 -0.777235 -1.223062 -5.636958 -1.158054 5.899436 1.930655 1.896512 22.316139 -28.604980 -19.804560 44.187255 -52.920977 -22.562541 10.321235 -2.133022 -25.783012 -7.650814 0.063968 -3.174071 -11.403449 -23.287343 9.288014 -63.958020 -58.280644 37.968122 -27.740010 -1.978843 15.322598 14.516110 -33.264187 4.016975 -16.219095 70.557303 -17.796807 -1.704443 12.609205 5.035431 -0.603987 -8.623379 4.113352 -1.490325 -33.820820 0.927886 34.291304 69.626861 30.073222 -22.787972 7.248221 -3.744505 -0.795207 -0.450931 -0.266120
-18.725361 57.126397 30.570038 169.319106 -41.997042 2.178517 7.573818 24.889306 3.986221 1.012890 4.085457 0.201214 1.712670 6.614334 0.373231 5.603475 20.645880 1.877187 -0.928808 16.149640 -0.687246 -1.481902 -5.806159 -0.947075 5.884133 1.902253 1.905067 22.332893 -28.637065 -19.778193 44.249597 -52.889968 -22.604390 10.311724 -2.131593 -25.754196 -7.690959 0.022444 -3.168903 -11.347485 -23.278788 9.307964 -63.925108 -58.318818 37.913825 -27.750027 -1.978690 15.388550 14.583622 -33.315152 4.069044 -16.437813 70.535112 -18.039712 -1.766799 12.622688 5.102219 -0.600059 -8.617783 4.137379 -1.477245 -33.869098 0.936335 34.229303 69.659586 30.035690 -22.744708 7.248616 -3.741646 -0.806850 -0.471224 -0.257626
-18.731788 57.117626 30.565617 169.403178 -41.950474 2.106301 7.554474 24.881479 4.008088 1.026497 4.086664 0.216375 1.675675 6.580145 0.365263 5.583383 20.684516 1.876892 -1.065552 16.064398 -0.608636 -1.764195 -5.963519 -0.751699 5.858249 1.876252 1.918111 22.338590 -28.688395 -19.719946 44.324625 -52.847680 -22.649159 10.311422 -2.115786 -25.729693 -7.744234 -0.021330 -3.158515 -11.305397 -23.203609 9.397641 -63.914524 -58.439211 37.935454 -27.759554 -1.976530 15.419158 14.578115 -33.371343 4.092283 -16.518706 70.529243 -18.151495 -1.778140 12.629079 5.165926 -0.609802 -8.618903 4.141726 -1.494456 -33.934623 0.925013 34.182137 69.695538 30.020389 -22.705462 7.242400 -3.716243 -0.827849 -0.490700 -0.289758
